<svg width="54" height="60" viewBox="0 0 54 60" fill="none" xmlns="http://www.w3.org/2000/svg">
<path d="M14.0631 48.7766V55.9766H13.4681C13.3781 55.9766 13.3015 55.9616 13.2381 55.9316C13.1748 55.8982 13.1148 55.8449 13.0581 55.7716L9.10312 50.6916C9.11312 50.7882 9.11978 50.8849 9.12312 50.9816C9.12978 51.0749 9.13312 51.1616 9.13312 51.2416V55.9766H8.10312V48.7766H8.71312C8.76312 48.7766 8.80478 48.7799 8.83812 48.7866C8.87478 48.7899 8.90812 48.7982 8.93812 48.8116C8.96812 48.8249 8.99645 48.8449 9.02312 48.8716C9.04978 48.8982 9.07812 48.9316 9.10812 48.9716L13.0681 54.0566C13.0581 53.9532 13.0498 53.8516 13.0431 53.7516C13.0398 53.6516 13.0381 53.5582 13.0381 53.4716V48.7766H14.0631ZM18.7676 52.8516C18.7676 52.6716 18.741 52.5049 18.6876 52.3516C18.6376 52.1949 18.5626 52.0599 18.4626 51.9466C18.3626 51.8299 18.2376 51.7399 18.0876 51.6766C17.941 51.6099 17.771 51.5766 17.5776 51.5766C17.1876 51.5766 16.881 51.6882 16.6576 51.9116C16.4343 52.1349 16.2926 52.4482 16.2326 52.8516H18.7676ZM16.2026 53.5116C16.216 53.8016 16.261 54.0532 16.3376 54.2666C16.4143 54.4766 16.516 54.6516 16.6426 54.7916C16.7726 54.9316 16.926 55.0366 17.1026 55.1066C17.2826 55.1732 17.4826 55.2066 17.7026 55.2066C17.9126 55.2066 18.0943 55.1832 18.2476 55.1366C18.401 55.0866 18.5343 55.0332 18.6476 54.9766C18.761 54.9166 18.8576 54.8632 18.9376 54.8166C19.0176 54.7666 19.091 54.7416 19.1576 54.7416C19.2443 54.7416 19.311 54.7749 19.3576 54.8416L19.6626 55.2366C19.536 55.3866 19.3926 55.5132 19.2326 55.6166C19.0726 55.7199 18.9026 55.8049 18.7226 55.8716C18.5426 55.9349 18.3576 55.9799 18.1676 56.0066C17.9776 56.0366 17.7926 56.0516 17.6126 56.0516C17.2593 56.0516 16.931 55.9932 16.6276 55.8766C16.3276 55.7566 16.066 55.5816 15.8426 55.3516C15.6226 55.1216 15.4493 54.8366 15.3226 54.4966C15.1993 54.1566 15.1376 53.7649 15.1376 53.3216C15.1376 52.9682 15.1926 52.6382 15.3026 52.3316C15.416 52.0249 15.576 51.7582 15.7826 51.5316C15.9926 51.3049 16.246 51.1266 16.5426 50.9966C16.8426 50.8632 17.181 50.7966 17.5576 50.7966C17.871 50.7966 18.161 50.8482 18.4276 50.9516C18.6943 51.0516 18.9243 51.1999 19.1176 51.3966C19.311 51.5932 19.461 51.8349 19.5676 52.1216C19.6776 52.4049 19.7326 52.7282 19.7326 53.0916C19.7326 53.2582 19.7143 53.3699 19.6776 53.4266C19.641 53.4832 19.5743 53.5116 19.4776 53.5116H16.2026ZM22.3213 56.0566C21.898 56.0566 21.5713 55.9382 21.3413 55.7016C21.1147 55.4616 21.0013 55.1249 21.0013 54.6916V51.7216H20.4413C20.3813 51.7216 20.3297 51.7032 20.2863 51.6666C20.243 51.6266 20.2213 51.5682 20.2213 51.4916V51.0566L21.0463 50.9366L21.2813 49.4616C21.298 49.4049 21.3263 49.3599 21.3663 49.3266C21.4063 49.2899 21.4597 49.2716 21.5263 49.2716H22.0763V50.9466H23.4913V51.7216H22.0763V54.6166C22.0763 54.7999 22.1213 54.9399 22.2113 55.0366C22.3013 55.1332 22.4213 55.1816 22.5713 55.1816C22.6547 55.1816 22.7263 55.1716 22.7863 55.1516C22.8463 55.1282 22.898 55.1049 22.9413 55.0816C22.9847 55.0549 23.0213 55.0316 23.0513 55.0116C23.0847 54.9882 23.1163 54.9766 23.1463 54.9766C23.2063 54.9766 23.2547 55.0099 23.2913 55.0766L23.6113 55.6016C23.4447 55.7482 23.248 55.8616 23.0213 55.9416C22.7947 56.0182 22.5613 56.0566 22.3213 56.0566ZM24.3387 55.9766V50.8766H24.9887C25.1353 50.8766 25.2287 50.9449 25.2687 51.0816L25.3387 51.5266C25.432 51.4199 25.5287 51.3232 25.6287 51.2366C25.7287 51.1466 25.8353 51.0699 25.9487 51.0066C26.0653 50.9399 26.1887 50.8882 26.3187 50.8516C26.452 50.8149 26.5953 50.7966 26.7487 50.7966C26.912 50.7966 27.062 50.8199 27.1987 50.8666C27.3353 50.9132 27.4553 50.9799 27.5587 51.0666C27.6653 51.1532 27.757 51.2582 27.8337 51.3816C27.9103 51.5049 27.9737 51.6432 28.0237 51.7966C28.1003 51.6199 28.197 51.4682 28.3137 51.3416C28.4303 51.2149 28.5603 51.1116 28.7037 51.0316C28.847 50.9516 28.9987 50.8932 29.1587 50.8566C29.322 50.8166 29.487 50.7966 29.6537 50.7966C29.927 50.7966 30.1703 50.8399 30.3837 50.9266C30.6003 51.0132 30.782 51.1399 30.9287 51.3066C31.0787 51.4699 31.192 51.6716 31.2687 51.9116C31.3453 52.1516 31.3837 52.4249 31.3837 52.7316V55.9766H30.3087V52.7316C30.3087 52.3716 30.2303 52.1016 30.0737 51.9216C29.9203 51.7382 29.692 51.6466 29.3887 51.6466C29.252 51.6466 29.1237 51.6699 29.0037 51.7166C28.8837 51.7632 28.7787 51.8316 28.6887 51.9216C28.5987 52.0116 28.527 52.1249 28.4737 52.2616C28.4237 52.3949 28.3987 52.5516 28.3987 52.7316V55.9766H27.3237V52.7316C27.3237 52.3582 27.2487 52.0849 27.0987 51.9116C26.9487 51.7349 26.7287 51.6466 26.4387 51.6466C26.2387 51.6466 26.0537 51.6982 25.8837 51.8016C25.7137 51.9016 25.557 52.0399 25.4137 52.2166V55.9766H24.3387ZM34.8444 50.7966C35.2211 50.7966 35.5611 50.8582 35.8644 50.9816C36.1711 51.1049 36.4311 51.2799 36.6444 51.5066C36.8611 51.7332 37.0278 52.0082 37.1444 52.3316C37.2611 52.6549 37.3194 53.0182 37.3194 53.4216C37.3194 53.8249 37.2611 54.1882 37.1444 54.5116C37.0278 54.8349 36.8611 55.1116 36.6444 55.3416C36.4311 55.5682 36.1711 55.7432 35.8644 55.8666C35.5611 55.9899 35.2211 56.0516 34.8444 56.0516C34.4644 56.0516 34.1211 55.9899 33.8144 55.8666C33.5111 55.7432 33.2511 55.5682 33.0344 55.3416C32.8178 55.1116 32.6511 54.8349 32.5344 54.5116C32.4178 54.1882 32.3594 53.8249 32.3594 53.4216C32.3594 53.0182 32.4178 52.6549 32.5344 52.3316C32.6511 52.0082 32.8178 51.7332 33.0344 51.5066C33.2511 51.2799 33.5111 51.1049 33.8144 50.9816C34.1211 50.8582 34.4644 50.7966 34.8444 50.7966ZM34.8444 55.2116C35.3044 55.2116 35.6461 55.0582 35.8694 54.7516C36.0961 54.4416 36.2094 53.9999 36.2094 53.4266C36.2094 52.8532 36.0961 52.4116 35.8694 52.1016C35.6461 51.7882 35.3044 51.6316 34.8444 51.6316C34.3778 51.6316 34.0311 51.7882 33.8044 52.1016C33.5778 52.4116 33.4644 52.8532 33.4644 53.4266C33.4644 53.9999 33.5778 54.4416 33.8044 54.7516C34.0311 55.0582 34.3778 55.2116 34.8444 55.2116ZM39.3573 51.5516C39.4673 51.4382 39.5807 51.3366 39.6973 51.2466C39.8173 51.1532 39.944 51.0732 40.0773 51.0066C40.2107 50.9399 40.3523 50.8882 40.5023 50.8516C40.6523 50.8149 40.8157 50.7966 40.9923 50.7966C41.2723 50.7966 41.5173 50.8432 41.7273 50.9366C41.9407 51.0299 42.119 51.1616 42.2623 51.3316C42.409 51.5016 42.519 51.7066 42.5923 51.9466C42.6657 52.1832 42.7023 52.4449 42.7023 52.7316V55.9766H41.6323V52.7316C41.6323 52.3882 41.5523 52.1216 41.3923 51.9316C41.2357 51.7416 40.9957 51.6466 40.6723 51.6466C40.4323 51.6466 40.209 51.7016 40.0023 51.8116C39.799 51.9216 39.6073 52.0716 39.4273 52.2616V55.9766H38.3523V50.8766H39.0023C39.149 50.8766 39.2423 50.9449 39.2823 51.0816L39.3573 51.5516Z" fill="#52AEDF"/>
<path d="M44.0354 8.94024C45.1454 9.15024 45.8654 9.33024 46.1954 9.48024C46.5554 9.60024 46.7954 9.79524 46.9154 10.0652C46.2854 12.4952 45.4604 15.9452 44.4404 20.4152C43.4204 24.8552 42.7304 27.8402 42.3704 29.3702C41.7104 32.4302 41.0954 35.1452 40.5254 37.5152C40.1054 39.1652 39.4454 39.9902 38.5454 39.9902C35.7854 39.9902 34.4054 39.3452 34.4054 38.0552C34.4054 38.5652 35.1854 35.1752 36.7454 27.8852L37.5554 24.0152L28.6004 37.8752C28.1204 38.4752 27.4154 38.7752 26.4854 38.7752C25.7054 38.7752 24.9704 38.5802 24.2804 38.1902C23.6204 37.8002 23.3354 37.4102 23.4254 37.0202L20.9504 22.4852L17.2604 37.3802C17.0504 38.2502 16.7204 38.8352 16.2704 39.1352C15.8504 39.4352 15.0404 39.5852 13.8404 39.5852C12.9104 39.5852 12.2204 39.4202 11.7704 39.0902C11.3504 38.7902 11.1404 38.2652 11.1404 37.5152C11.1404 37.1852 11.1854 36.8702 11.2754 36.5702L17.4404 12.2252C17.7704 10.9052 18.1154 10.0352 18.4754 9.61524C18.8654 9.16524 19.5554 8.94024 20.5454 8.94024C21.3554 8.94024 22.0754 9.03024 22.7054 9.21024C23.3354 9.39024 23.6654 9.66024 23.6954 10.0202V10.1102L27.2954 32.4752C28.5854 30.4052 30.7004 26.9852 33.6404 22.2152C36.6104 17.4452 38.9354 13.7252 40.6154 11.0552C40.9154 10.3052 41.2454 9.82524 41.6054 9.61524C41.9954 9.37524 42.4304 9.21024 42.9104 9.12024C43.4204 9.03024 43.7954 8.97024 44.0354 8.94024Z" fill="#52AEDF"/>
</svg>
