<svg width="53" height="60" viewBox="0 0 53 60" fill="none" xmlns="http://www.w3.org/2000/svg">
<path d="M8.01629 48.7644V55.9644H7.42129C7.33129 55.9644 7.25463 55.9494 7.19129 55.9194C7.12796 55.886 7.06796 55.8327 7.01129 55.7594L3.05629 50.6794C3.06629 50.776 3.07296 50.8727 3.07629 50.9694C3.08296 51.0627 3.08629 51.1494 3.08629 51.2294V55.9644H2.05629V48.7644H2.66629C2.71629 48.7644 2.75796 48.7677 2.79129 48.7744C2.82796 48.7777 2.86129 48.786 2.89129 48.7994C2.92129 48.8127 2.94963 48.8327 2.97629 48.8594C3.00296 48.886 3.03129 48.9194 3.06129 48.9594L7.02129 54.0444C7.01129 53.941 7.00296 53.8394 6.99629 53.7394C6.99296 53.6394 6.99129 53.546 6.99129 53.4594V48.7644H8.01629ZM12.7208 52.8394C12.7208 52.6594 12.6942 52.4927 12.6408 52.3394C12.5908 52.1827 12.5158 52.0477 12.4158 51.9344C12.3158 51.8177 12.1908 51.7277 12.0408 51.6644C11.8942 51.5977 11.7242 51.5644 11.5308 51.5644C11.1408 51.5644 10.8342 51.676 10.6108 51.8994C10.3875 52.1227 10.2458 52.436 10.1858 52.8394H12.7208ZM10.1558 53.4994C10.1692 53.7894 10.2142 54.041 10.2908 54.2544C10.3675 54.4644 10.4692 54.6394 10.5958 54.7794C10.7258 54.9194 10.8792 55.0244 11.0558 55.0944C11.2358 55.161 11.4358 55.1944 11.6558 55.1944C11.8658 55.1944 12.0475 55.171 12.2008 55.1244C12.3542 55.0744 12.4875 55.021 12.6008 54.9644C12.7142 54.9044 12.8108 54.851 12.8908 54.8044C12.9708 54.7544 13.0442 54.7294 13.1108 54.7294C13.1975 54.7294 13.2642 54.7627 13.3108 54.8294L13.6158 55.2244C13.4892 55.3744 13.3458 55.501 13.1858 55.6044C13.0258 55.7077 12.8558 55.7927 12.6758 55.8594C12.4958 55.9227 12.3108 55.9677 12.1208 55.9944C11.9308 56.0244 11.7458 56.0394 11.5658 56.0394C11.2125 56.0394 10.8842 55.981 10.5808 55.8644C10.2808 55.7444 10.0192 55.5694 9.79582 55.3394C9.57582 55.1094 9.40249 54.8244 9.27582 54.4844C9.15249 54.1444 9.09082 53.7527 9.09082 53.3094C9.09082 52.956 9.14582 52.626 9.25582 52.3194C9.36916 52.0127 9.52916 51.746 9.73582 51.5194C9.94582 51.2927 10.1992 51.1144 10.4958 50.9844C10.7958 50.851 11.1342 50.7844 11.5108 50.7844C11.8242 50.7844 12.1142 50.836 12.3808 50.9394C12.6475 51.0394 12.8775 51.1877 13.0708 51.3844C13.2642 51.581 13.4142 51.8227 13.5208 52.1094C13.6308 52.3927 13.6858 52.716 13.6858 53.0794C13.6858 53.246 13.6675 53.3577 13.6308 53.4144C13.5942 53.471 13.5275 53.4994 13.4308 53.4994H10.1558ZM16.2745 56.0444C15.8512 56.0444 15.5245 55.926 15.2945 55.6894C15.0678 55.4494 14.9545 55.1127 14.9545 54.6794V51.7094H14.3945C14.3345 51.7094 14.2828 51.691 14.2395 51.6544C14.1962 51.6144 14.1745 51.556 14.1745 51.4794V51.0444L14.9995 50.9244L15.2345 49.4494C15.2512 49.3927 15.2795 49.3477 15.3195 49.3144C15.3595 49.2777 15.4128 49.2594 15.4795 49.2594H16.0295V50.9344H17.4445V51.7094H16.0295V54.6044C16.0295 54.7877 16.0745 54.9277 16.1645 55.0244C16.2545 55.121 16.3745 55.1694 16.5245 55.1694C16.6078 55.1694 16.6795 55.1594 16.7395 55.1394C16.7995 55.116 16.8512 55.0927 16.8945 55.0694C16.9378 55.0427 16.9745 55.0194 17.0045 54.9994C17.0378 54.976 17.0695 54.9644 17.0995 54.9644C17.1595 54.9644 17.2078 54.9977 17.2445 55.0644L17.5645 55.5894C17.3978 55.736 17.2012 55.8494 16.9745 55.9294C16.7478 56.006 16.5145 56.0444 16.2745 56.0444ZM24.2141 48.7644L21.2941 55.9644H20.2391L17.3191 48.7644H18.2541C18.3574 48.7644 18.4408 48.791 18.5041 48.8444C18.5674 48.8944 18.6158 48.9577 18.6491 49.0344L20.5041 53.7294C20.6041 53.9927 20.6958 54.296 20.7791 54.6394C20.8158 54.4694 20.8541 54.3077 20.8941 54.1544C20.9374 54.001 20.9841 53.8594 21.0341 53.7294L22.8841 49.0344C22.9108 48.9677 22.9574 48.906 23.0241 48.8494C23.0908 48.7927 23.1741 48.7644 23.2741 48.7644H24.2141ZM25.9743 50.8644V55.9644H24.8993V50.8644H25.9743ZM26.1543 49.3244C26.1543 49.421 26.1343 49.5127 26.0943 49.5994C26.0577 49.686 26.006 49.7627 25.9393 49.8294C25.8727 49.8927 25.7943 49.9444 25.7043 49.9844C25.6177 50.021 25.5243 50.0394 25.4243 50.0394C25.3277 50.0394 25.236 50.021 25.1493 49.9844C25.066 49.9444 24.9927 49.8927 24.9293 49.8294C24.866 49.7627 24.8143 49.686 24.7743 49.5994C24.7377 49.5127 24.7193 49.421 24.7193 49.3244C24.7193 49.2244 24.7377 49.131 24.7743 49.0444C24.8143 48.9577 24.866 48.8827 24.9293 48.8194C24.9927 48.7527 25.066 48.701 25.1493 48.6644C25.236 48.6244 25.3277 48.6044 25.4243 48.6044C25.5243 48.6044 25.6177 48.6244 25.7043 48.6644C25.7943 48.701 25.8727 48.7527 25.9393 48.8194C26.006 48.8827 26.0577 48.9577 26.0943 49.0444C26.1343 49.131 26.1543 49.2244 26.1543 49.3244ZM30.67 52.8394C30.67 52.6594 30.6434 52.4927 30.59 52.3394C30.54 52.1827 30.465 52.0477 30.365 51.9344C30.265 51.8177 30.14 51.7277 29.99 51.6644C29.8434 51.5977 29.6734 51.5644 29.48 51.5644C29.09 51.5644 28.7834 51.676 28.56 51.8994C28.3367 52.1227 28.195 52.436 28.135 52.8394H30.67ZM28.105 53.4994C28.1184 53.7894 28.1634 54.041 28.24 54.2544C28.3167 54.4644 28.4184 54.6394 28.545 54.7794C28.675 54.9194 28.8284 55.0244 29.005 55.0944C29.185 55.161 29.385 55.1944 29.605 55.1944C29.815 55.1944 29.9967 55.171 30.15 55.1244C30.3034 55.0744 30.4367 55.021 30.55 54.9644C30.6634 54.9044 30.76 54.851 30.84 54.8044C30.92 54.7544 30.9934 54.7294 31.06 54.7294C31.1467 54.7294 31.2134 54.7627 31.26 54.8294L31.565 55.2244C31.4384 55.3744 31.295 55.501 31.135 55.6044C30.975 55.7077 30.805 55.7927 30.625 55.8594C30.445 55.9227 30.26 55.9677 30.07 55.9944C29.88 56.0244 29.695 56.0394 29.515 56.0394C29.1617 56.0394 28.8334 55.981 28.53 55.8644C28.23 55.7444 27.9684 55.5694 27.745 55.3394C27.525 55.1094 27.3517 54.8244 27.225 54.4844C27.1017 54.1444 27.04 53.7527 27.04 53.3094C27.04 52.956 27.095 52.626 27.205 52.3194C27.3184 52.0127 27.4784 51.746 27.685 51.5194C27.895 51.2927 28.1484 51.1144 28.445 50.9844C28.745 50.851 29.0834 50.7844 29.46 50.7844C29.7734 50.7844 30.0634 50.836 30.33 50.9394C30.5967 51.0394 30.8267 51.1877 31.02 51.3844C31.2134 51.581 31.3634 51.8227 31.47 52.1094C31.58 52.3927 31.635 52.716 31.635 53.0794C31.635 53.246 31.6167 53.3577 31.58 53.4144C31.5434 53.471 31.4767 53.4994 31.38 53.4994H28.105ZM39.7439 50.8644L38.1089 55.9644H37.2539C37.1539 55.9644 37.0839 55.8994 37.0439 55.7694L36.0289 52.5944C36.0023 52.5044 35.9773 52.4144 35.9539 52.3244C35.9339 52.2344 35.9156 52.146 35.8989 52.0594C35.8623 52.2394 35.8173 52.4194 35.7639 52.5994L34.7339 55.7694C34.6973 55.8994 34.6189 55.9644 34.4989 55.9644H33.6839L32.0489 50.8644H32.8989C32.9823 50.8644 33.0506 50.886 33.1039 50.9294C33.1606 50.9694 33.1973 51.0177 33.2139 51.0744L34.0639 54.0444C34.0973 54.181 34.1256 54.3144 34.1489 54.4444C34.1756 54.571 34.1989 54.6977 34.2189 54.8244C34.2523 54.6977 34.2873 54.571 34.3239 54.4444C34.3606 54.3144 34.3989 54.181 34.4389 54.0444L35.3939 51.0594C35.4106 50.9994 35.4439 50.951 35.4939 50.9144C35.5473 50.8744 35.6106 50.8544 35.6839 50.8544H36.1539C36.2306 50.8544 36.2956 50.8744 36.3489 50.9144C36.4023 50.951 36.4373 50.9994 36.4539 51.0594L37.3839 54.0444C37.4239 54.181 37.4606 54.3144 37.4939 54.4444C37.5306 54.5744 37.5639 54.7044 37.5939 54.8344C37.6173 54.7077 37.6423 54.5794 37.6689 54.4494C37.6956 54.3194 37.7273 54.1844 37.7639 54.0444L38.6289 51.0744C38.6489 51.0144 38.6856 50.9644 38.7389 50.9244C38.7923 50.8844 38.8573 50.8644 38.9339 50.8644H39.7439ZM43.795 52.8394C43.795 52.6594 43.7684 52.4927 43.715 52.3394C43.665 52.1827 43.59 52.0477 43.49 51.9344C43.39 51.8177 43.265 51.7277 43.115 51.6644C42.9684 51.5977 42.7984 51.5644 42.605 51.5644C42.215 51.5644 41.9084 51.676 41.685 51.8994C41.4617 52.1227 41.32 52.436 41.26 52.8394H43.795ZM41.23 53.4994C41.2434 53.7894 41.2884 54.041 41.365 54.2544C41.4417 54.4644 41.5434 54.6394 41.67 54.7794C41.8 54.9194 41.9534 55.0244 42.13 55.0944C42.31 55.161 42.51 55.1944 42.73 55.1944C42.94 55.1944 43.1217 55.171 43.275 55.1244C43.4284 55.0744 43.5617 55.021 43.675 54.9644C43.7884 54.9044 43.885 54.851 43.965 54.8044C44.045 54.7544 44.1184 54.7294 44.185 54.7294C44.2717 54.7294 44.3384 54.7627 44.385 54.8294L44.69 55.2244C44.5634 55.3744 44.42 55.501 44.26 55.6044C44.1 55.7077 43.93 55.7927 43.75 55.8594C43.57 55.9227 43.385 55.9677 43.195 55.9944C43.005 56.0244 42.82 56.0394 42.64 56.0394C42.2867 56.0394 41.9584 55.981 41.655 55.8644C41.355 55.7444 41.0934 55.5694 40.87 55.3394C40.65 55.1094 40.4767 54.8244 40.35 54.4844C40.2267 54.1444 40.165 53.7527 40.165 53.3094C40.165 52.956 40.22 52.626 40.33 52.3194C40.4434 52.0127 40.6034 51.746 40.81 51.5194C41.02 51.2927 41.2734 51.1144 41.57 50.9844C41.87 50.851 42.2084 50.7844 42.585 50.7844C42.8984 50.7844 43.1884 50.836 43.455 50.9394C43.7217 51.0394 43.9517 51.1877 44.145 51.3844C44.3384 51.581 44.4884 51.8227 44.595 52.1094C44.705 52.3927 44.76 52.716 44.76 53.0794C44.76 53.246 44.7417 53.3577 44.705 53.4144C44.6684 53.471 44.6017 53.4994 44.505 53.4994H41.23ZM46.7775 51.8094C46.9375 51.486 47.1309 51.2327 47.3575 51.0494C47.5842 50.8627 47.8559 50.7694 48.1725 50.7694C48.2825 50.7694 48.3859 50.7827 48.4825 50.8094C48.5792 50.8327 48.6659 50.8694 48.7425 50.9194L48.6675 51.7294C48.6542 51.786 48.6325 51.826 48.6025 51.8494C48.5759 51.8694 48.5392 51.8794 48.4925 51.8794C48.4425 51.8794 48.3709 51.871 48.2775 51.8544C48.1842 51.8344 48.0859 51.8244 47.9825 51.8244C47.8325 51.8244 47.6992 51.846 47.5825 51.8894C47.4692 51.9327 47.3659 51.996 47.2725 52.0794C47.1825 52.1627 47.1025 52.2644 47.0325 52.3844C46.9625 52.5044 46.8975 52.641 46.8375 52.7944V55.9644H45.7625V50.8644H46.3875C46.5009 50.8644 46.5792 50.886 46.6225 50.9294C46.6659 50.9694 46.6959 51.041 46.7125 51.1444L46.7775 51.8094Z" fill="#FDDF77"/>
<path d="M22.4651 39.945C21.2651 39.675 20.4251 39.39 19.9451 39.09C19.4651 38.79 19.1501 38.4 19.0001 37.92C18.8801 37.41 18.7901 36.57 18.7301 35.4C18.6701 33.63 18.5201 30.87 18.2801 27.12C18.2501 26.52 18.1451 24.585 17.9651 21.315C17.7851 18.045 17.6951 14.91 17.6951 11.91C17.6951 11.19 18.0101 10.59 18.6401 10.11C19.3001 9.6 20.1251 9.345 21.1151 9.345C22.0151 9.345 22.6751 9.6 23.0951 10.11C23.5151 10.59 23.7251 11.34 23.7251 12.36L23.7701 30.27V34.725C26.1701 29.415 28.9151 23.85 32.0051 18.03C35.0951 12.18 37.0751 9.255 37.9451 9.255C39.0551 9.255 39.9551 9.51 40.6451 10.02C41.3351 10.53 41.6951 11.13 41.7251 11.82C41.5451 12.21 40.8101 13.59 39.5201 15.96L37.4051 19.695L35.8751 22.53C32.8451 28.08 30.7301 31.905 29.5301 34.005C28.3301 36.105 27.3251 37.59 26.5151 38.46C26.1551 38.88 25.6001 39.225 24.8501 39.495C24.1301 39.795 23.3351 39.945 22.4651 39.945Z" fill="#FDDF77"/>
</svg>
